<svg xmlns="http://www.w3.org/2000/svg" width="156" height="156" fill="none" viewBox="0 0 156 156">
  <g filter="url(#a)">
    <path stroke="#000" stroke-width="8"
      d="M74.788 5.772a6 6 0 0 1 6.06 0l59.817 34.99a6 6 0 0 1 2.971 5.18v70.117a6.001 6.001 0 0 1-2.971 5.179l-60.038 35.119a6 6 0 0 1-5.718.184L15.31 126.66a6 6 0 0 1-3.31-5.364V45.941a6 6 0 0 1 2.97-5.179l59.82-34.99Z"
      shape-rendering="crispEdges" />
  </g>
  <path stroke="#000" stroke-width="6" d="m38 111-26 17" />
  <path stroke="#000" stroke-width="8" d="M145 122 78 81" />
  <path stroke="#000" stroke-width="6" d="M79 4v48" />
  <g filter="url(#b)">
    <path fill="#5CDECE"
      d="M73.769 40.54a10 10 0 0 1 9.462 0l30.5 16.38A10 10 0 0 1 119 65.73v31.54c0 3.682-2.024 7.067-5.269 8.81l-30.843 16.563a9.996 9.996 0 0 1-8.913.274L43.82 109.036A10.001 10.001 0 0 1 38 99.952V65.73a10 10 0 0 1 5.269-8.81l30.5-16.38Z" />
    <path stroke="#5CDECE" stroke-width="8"
      d="M85.124 37.017a14 14 0 0 0-13.248 0l-30.5 16.38A14 14 0 0 0 34 65.73v34.222c0 5.466 3.18 10.432 8.146 12.717l30.157 13.882a14 14 0 0 0 12.478-.384l30.843-16.564A14 14 0 0 0 123 97.27V65.73a14 14 0 0 0-7.376-12.334l-30.5-16.38Z" />
    <path stroke="#000" stroke-opacity=".04" stroke-width="8"
      d="M85.124 37.017a14 14 0 0 0-13.248 0l-30.5 16.38A14 14 0 0 0 34 65.73v34.222c0 5.466 3.18 10.432 8.146 12.717l30.157 13.882a14 14 0 0 0 12.478-.384l30.843-16.564A14 14 0 0 0 123 97.27V65.73a14 14 0 0 0-7.376-12.334l-30.5-16.38Z" />
  </g>
  <g filter="url(#c)">
    <path fill="#000"
      d="M72.727 107.989c-3.34 0-6.318-.58-8.932-1.739-2.613-1.182-4.681-2.92-6.204-5.216-1.5-2.318-2.25-5.205-2.25-8.659 0-2.91.534-5.352 1.602-7.33 1.068-1.977 2.523-3.568 4.364-4.772 1.84-1.205 3.932-2.114 6.272-2.727a47.81 47.81 0 0 1 7.432-1.296c3.046-.318 5.5-.614 7.364-.886 1.864-.296 3.216-.728 4.057-1.296.84-.568 1.261-1.409 1.261-2.522v-.205c0-2.16-.682-3.83-2.045-5.011-1.341-1.182-3.25-1.773-5.727-1.773-2.614 0-4.694.58-6.24 1.739-1.545 1.136-2.567 2.568-3.067 4.295L57.182 69.5c.682-3.182 2.023-5.932 4.023-8.25 2-2.34 4.58-4.136 7.738-5.386 3.182-1.273 6.864-1.91 11.046-1.91 2.909 0 5.693.341 8.352 1.023 2.682.682 5.057 1.739 7.125 3.17a15.408 15.408 0 0 1 4.943 5.523c1.205 2.228 1.807 4.898 1.807 8.012V107H88.443v-7.261h-.409a14.777 14.777 0 0 1-3.375 4.329c-1.409 1.227-3.102 2.193-5.08 2.898-1.977.682-4.26 1.023-6.852 1.023Zm4.16-10.023c2.136 0 4.022-.42 5.659-1.261 1.636-.864 2.92-2.023 3.852-3.478.931-1.454 1.398-3.102 1.398-4.943v-5.557c-.455.296-1.08.569-1.876.819a34.28 34.28 0 0 1-2.624.647c-.978.182-1.955.353-2.932.511-.978.137-1.864.262-2.66.376-1.704.25-3.193.647-4.465 1.193-1.273.545-2.262 1.284-2.966 2.216-.705.909-1.057 2.045-1.057 3.409 0 1.977.716 3.488 2.148 4.534 1.454 1.022 3.295 1.534 5.522 1.534Z" />
  </g>
  <defs>
    <filter id="a" width="155.636" height="176.227" x="0" y=".951" color-interpolation-filters="sRGB"
      filterUnits="userSpaceOnUse">
      <feFlood flood-opacity="0" result="BackgroundImageFix" />
      <feColorMatrix in="SourceAlpha" result="hardAlpha" values="0 0 0 0 0 0 0 0 0 0 0 0 0 0 0 0 0 0 127 0" />
      <feOffset dy="8" />
      <feGaussianBlur stdDeviation="4" />
      <feComposite in2="hardAlpha" operator="out" />
      <feColorMatrix values="0 0 0 0 0 0 0 0 0 0 0 0 0 0 0 0 0 0 0.25 0" />
      <feBlend in2="BackgroundImageFix" result="effect1_dropShadow_1_29" />
      <feBlend in="SourceGraphic" in2="effect1_dropShadow_1_29" result="shape" />
    </filter>
    <filter id="b" width="99" height="102.483" x="29" y="30.351" color-interpolation-filters="sRGB"
      filterUnits="userSpaceOnUse">
      <feFlood flood-opacity="0" result="BackgroundImageFix" />
      <feBlend in="SourceGraphic" in2="BackgroundImageFix" result="shape" />
      <feGaussianBlur result="effect1_foregroundBlur_1_29" stdDeviation=".5" />
    </filter>
    <filter id="c" width="62.875" height="70.034" x="47.341" y="45.955" color-interpolation-filters="sRGB"
      filterUnits="userSpaceOnUse">
      <feFlood flood-opacity="0" result="BackgroundImageFix" />
      <feGaussianBlur in="BackgroundImage" stdDeviation="4" />
      <feComposite in2="SourceAlpha" operator="in" result="effect1_backgroundBlur_1_29" />
      <feColorMatrix in="SourceAlpha" result="hardAlpha" values="0 0 0 0 0 0 0 0 0 0 0 0 0 0 0 0 0 0 127 0" />
      <feOffset dy="2" />
      <feGaussianBlur stdDeviation="1" />
      <feComposite in2="hardAlpha" operator="out" />
      <feColorMatrix values="0 0 0 0 0 0 0 0 0 0 0 0 0 0 0 0 0 0 0.25 0" />
      <feBlend in2="effect1_backgroundBlur_1_29" result="effect2_dropShadow_1_29" />
      <feBlend in="SourceGraphic" in2="effect2_dropShadow_1_29" result="shape" />
    </filter>
  </defs>
</svg>